<svg xmlns="http://www.w3.org/2000/svg"  width="128" height="128" viewBox="0 0 256 256" fill="none" id="my-svg"> 
        
            <defs><pattern id="a" patternUnits="userSpaceOnUse" width="80" height="80" patternTransform="scale(3.19) rotate(0)"><rect x="0" y="0" width="100%" height="100%" fill="hsla(0,0%,100%,1)"></rect><path d="M-20.133 4.568C-13.178 4.932-6.452 7.376 0 10c6.452 2.624 13.036 5.072 20 5 6.967-.072 13.56-2.341 20-5 6.44-2.659 13.033-4.928 20-5 6.964-.072 13.548 2.376 20 5s13.178 5.068 20.133 5.432" stroke-width="30" stroke="hsla(258.5,59.4%,59.4%,1)" fill="none"></path><path d="M-20.133 24.568C-13.178 24.932-6.452 27.376 0 30c6.452 2.624 13.036 5.072 20 5 6.967-.072 13.56-2.341 20-5 6.44-2.659 13.033-4.928 20-5 6.964-.072 13.548 2.376 20 5s13.178 5.068 20.133 5.432" stroke-width="30" stroke="hsla(339.6,82.2%,51.6%,1)" fill="none"></path><path d="M-20.133 44.568C-13.178 44.932-6.452 47.376 0 50c6.452 2.624 13.036 5.072 20 5 6.967-.072 13.56-2.341 20-5 6.44-2.659 13.033-4.928 20-5 6.964-.072 13.548 2.376 20 5s13.178 5.068 20.133 5.432" stroke-width="30" stroke="hsla(198.7,97.6%,48.4%,1)" fill="none"></path><path d="M-20.133 64.568C-13.178 64.932-6.452 67.376 0 70c6.452 2.624 13.036 5.072 20 5 6.967-.072 13.56-2.341 20-5 6.44-2.659 13.033-4.928 20-5 6.964-.072 13.548 2.376 20 5s13.178 5.068 20.133 5.432" stroke-width="30" stroke="hsla(47,80.9%,61%,1)" fill="none"></path></pattern>
              <linearGradient id="gradient1">
                <stop class="stop1" offset="0%" stop-color="#0011ff"></stop>
                <stop class="stop2" offset="100%" stop-color="#ff000d"></stop>
              </linearGradient>
            </defs>
            <rect id="backgr" width="256" height="256" fill="#000000" rx="140"></rect>
            <g id="group" transform="translate(25.599999999999994,35.599999999999994) scale(0.8)">
              <path d="M128.000 128.000L96.000 106.667M128.000 149.333L170.667 128.000" stroke="url(#a)" stroke-width="14" stroke-linecap="round" stroke-linejoin="round" id="secondary"></path>
              <path d="M128.000 96.000V128.000V149.333V224.000M191.621 78.941C188.462 52.499 165.958 32.000 138.667 32.000C121.218 32.000 105.726 40.379 95.996 53.333C60.652 53.335 32.000 81.988 32.000 117.333C32.000 152.679 60.654 181.333 96.000 181.333H170.667C200.122 181.333 224.000 157.455 224.000 128.000C224.000 105.983 210.659 87.083 191.621 78.941Z" stroke="url(#gradient1)" stroke-width="14" stroke-linecap="round" stroke-linejoin="round" id="primary"></path>
            </g>
        </svg>